<svg xmlns="http://www.w3.org/2000/svg" viewBox="0 0 70 70">
<path fill-rule="evenodd" fill="#FFFFFF" d="M47.5,47.5c-0.4,0.4-1,0.6-1.5,0.6c-0.6,0-1.1-0.2-1.5-0.6L35,38.1l-9.4,9.4
	c-0.4,0.4-1,0.6-1.6,0.6c-0.6,0-1.1-0.2-1.5-0.6c-0.9-0.8-0.9-2.2,0-3.1l9.4-9.4l-9.4-9.4c-0.9-0.9-0.9-2.2,0-3.1
	c0.9-0.9,2.2-0.9,3.1,0l9.4,9.4l9.4-9.4c0.9-0.9,2.2-0.9,3.1,0c0.9,0.9,0.9,2.2,0,3.1L38.1,35l9.4,9.4
	C48.3,45.2,48.3,46.6,47.5,47.5z M35,4.4C18.1,4.4,4.4,18.1,4.4,35S18.1,65.6,35,65.6S65.6,51.9,65.6,35S51.9,4.4,35,4.4z M35,70
	C15.7,70,0,54.3,0,35S15.7,0,35,0s35,15.7,35,35S54.3,70,35,70z" />
</svg>