<svg xmlns="http://www.w3.org/2000/svg" viewBox="0 0 70 70">
<path fill-rule="evenodd" fill="#FFFFFF" d="M48.1,34.8L29.4,24.7c-0.3-0.2-0.6-0.2-0.7-0.2c-0.1,0-0.3,0-0.3,0.6v20
	c0,0.6,0.2,0.6,0.3,0.6c0.1,0,0.3,0,0.7-0.2l18.8-10.2c0.1,0,0.2-0.1,0.2-0.1C48.4,35,48.3,34.9,48.1,34.8z M50.3,39L31.5,49.2
	c-0.9,0.5-1.8,0.7-2.8,0.7c-2.7,0-4.7-2.1-4.7-4.9V25c0-2.9,2-4.9,4.7-4.9c0.9,0,1.9,0.2,2.8,0.7L50.2,31c1.8,1,2.8,2.5,2.8,4.1
	C53,36.6,52,38.1,50.3,39z M35,4.4C18.1,4.4,4.4,18.1,4.4,35S18.1,65.6,35,65.6S65.6,51.9,65.6,35S51.9,4.4,35,4.4z M35,70
	C15.7,70,0,54.3,0,35S15.7,0,35,0s35,15.7,35,35S54.3,70,35,70z" /></svg>